<?xml version="1.0" encoding="UTF-8" standalone="no"?>
<!DOCTYPE svg PUBLIC "-//W3C//DTD SVG 1.1//EN"
 "http://www.w3.org/Graphics/SVG/1.1/DTD/svg11.dtd">
<!-- Generated by graphviz version 12.0.0 (20240803.0821)
 -->
<!-- Title: program Pages: 1 -->
<svg width="653pt" height="548pt"
 viewBox="0.00 0.00 653.00 548.00" xmlns="http://www.w3.org/2000/svg" xmlns:xlink="http://www.w3.org/1999/xlink">
<g id="graph0" class="graph" transform="scale(1 1) rotate(0) translate(4 544)">
<title>program</title>
<polygon fill="white" stroke="none" points="-4,4 -4,-544 649,-544 649,4 -4,4"/>
<!-- 0 -->
<g id="node1" class="node">
<title>0</title>
<ellipse fill="#136ed4" stroke="black" cx="188" cy="-522" rx="30.16" ry="18"/>
<text text-anchor="middle" x="188" y="-517.33" font-family="Times,serif" font-size="14.00">min</text>
</g>
<!-- 1 -->
<g id="node2" class="node">
<title>1</title>
<ellipse fill="#136ed4" stroke="black" cx="148" cy="-450" rx="32.27" ry="18"/>
<text text-anchor="middle" x="148" y="-445.32" font-family="Times,serif" font-size="14.00">max</text>
</g>
<!-- 0&#45;&gt;1 -->
<g id="edge32" class="edge">
<title>0&#45;&gt;1</title>
<path fill="none" stroke="black" d="M178.52,-504.41C173.89,-496.3 168.2,-486.35 163,-477.25"/>
<polygon fill="black" stroke="black" points="166.16,-475.73 158.16,-468.78 160.08,-479.2 166.16,-475.73"/>
</g>
<!-- 4 -->
<g id="node5" class="node">
<title>4</title>
<ellipse fill="#136ed4" stroke="black" cx="228" cy="-450" rx="30.16" ry="18"/>
<text text-anchor="middle" x="228" y="-445.32" font-family="Times,serif" font-size="14.00">min</text>
</g>
<!-- 0&#45;&gt;4 -->
<g id="edge31" class="edge">
<title>0&#45;&gt;4</title>
<path fill="none" stroke="black" d="M197.48,-504.41C202.11,-496.3 207.8,-486.35 213,-477.25"/>
<polygon fill="black" stroke="black" points="215.92,-479.2 217.84,-468.78 209.84,-475.73 215.92,-479.2"/>
</g>
<!-- 2 -->
<g id="node3" class="node">
<title>2</title>
<ellipse fill="#60a6f6" stroke="black" cx="77" cy="-378" rx="27" ry="18"/>
<text text-anchor="middle" x="77" y="-373.32" font-family="Times,serif" font-size="14.00">X3</text>
</g>
<!-- 1&#45;&gt;2 -->
<g id="edge2" class="edge">
<title>1&#45;&gt;2</title>
<path fill="none" stroke="black" d="M132.59,-433.81C122.94,-424.29 110.33,-411.86 99.56,-401.24"/>
<polygon fill="black" stroke="black" points="102.06,-398.8 92.49,-394.27 97.15,-403.78 102.06,-398.8"/>
</g>
<!-- 3 -->
<g id="node4" class="node">
<title>3</title>
<ellipse fill="#60a6f6" stroke="black" cx="149" cy="-378" rx="27" ry="18"/>
<text text-anchor="middle" x="149" y="-373.32" font-family="Times,serif" font-size="14.00">X2</text>
</g>
<!-- 1&#45;&gt;3 -->
<g id="edge1" class="edge">
<title>1&#45;&gt;3</title>
<path fill="none" stroke="black" d="M148.25,-431.7C148.35,-424.41 148.48,-415.73 148.59,-407.54"/>
<polygon fill="black" stroke="black" points="152.09,-407.67 148.73,-397.62 145.09,-407.57 152.09,-407.67"/>
</g>
<!-- 5 -->
<g id="node6" class="node">
<title>5</title>
<ellipse fill="#136ed4" stroke="black" cx="227" cy="-378" rx="32.27" ry="18"/>
<text text-anchor="middle" x="227" y="-373.32" font-family="Times,serif" font-size="14.00">max</text>
</g>
<!-- 4&#45;&gt;5 -->
<g id="edge30" class="edge">
<title>4&#45;&gt;5</title>
<path fill="none" stroke="black" d="M227.75,-431.7C227.65,-424.41 227.52,-415.73 227.41,-407.54"/>
<polygon fill="black" stroke="black" points="230.91,-407.57 227.27,-397.62 223.91,-407.67 230.91,-407.57"/>
</g>
<!-- 8 -->
<g id="node9" class="node">
<title>8</title>
<ellipse fill="#136ed4" stroke="black" cx="307" cy="-378" rx="29.64" ry="18"/>
<text text-anchor="middle" x="307" y="-373.32" font-family="Times,serif" font-size="14.00">add</text>
</g>
<!-- 4&#45;&gt;8 -->
<g id="edge29" class="edge">
<title>4&#45;&gt;8</title>
<path fill="none" stroke="black" d="M244.37,-434.5C255.28,-424.83 269.82,-411.94 282.15,-401.02"/>
<polygon fill="black" stroke="black" points="284.36,-403.74 289.52,-394.49 279.71,-398.5 284.36,-403.74"/>
</g>
<!-- 6 -->
<g id="node7" class="node">
<title>6</title>
<ellipse fill="#60a6f6" stroke="black" cx="156" cy="-306" rx="27" ry="18"/>
<text text-anchor="middle" x="156" y="-301.32" font-family="Times,serif" font-size="14.00">X3</text>
</g>
<!-- 5&#45;&gt;6 -->
<g id="edge4" class="edge">
<title>5&#45;&gt;6</title>
<path fill="none" stroke="black" d="M211.59,-361.81C201.94,-352.29 189.33,-339.86 178.56,-329.24"/>
<polygon fill="black" stroke="black" points="181.06,-326.8 171.49,-322.27 176.15,-331.78 181.06,-326.8"/>
</g>
<!-- 7 -->
<g id="node8" class="node">
<title>7</title>
<ellipse fill="#60a6f6" stroke="black" cx="228" cy="-306" rx="27" ry="18"/>
<text text-anchor="middle" x="228" y="-301.32" font-family="Times,serif" font-size="14.00">X8</text>
</g>
<!-- 5&#45;&gt;7 -->
<g id="edge3" class="edge">
<title>5&#45;&gt;7</title>
<path fill="none" stroke="black" d="M227.25,-359.7C227.35,-352.41 227.48,-343.73 227.59,-335.54"/>
<polygon fill="black" stroke="black" points="231.09,-335.67 227.73,-325.62 224.09,-335.57 231.09,-335.67"/>
</g>
<!-- 9 -->
<g id="node10" class="node">
<title>9</title>
<ellipse fill="#136ed4" stroke="black" cx="305" cy="-306" rx="30.16" ry="18"/>
<text text-anchor="middle" x="305" y="-301.32" font-family="Times,serif" font-size="14.00">min</text>
</g>
<!-- 8&#45;&gt;9 -->
<g id="edge28" class="edge">
<title>8&#45;&gt;9</title>
<path fill="none" stroke="black" d="M306.51,-359.7C306.3,-352.41 306.05,-343.73 305.82,-335.54"/>
<polygon fill="black" stroke="black" points="309.32,-335.51 305.53,-325.62 302.32,-335.71 309.32,-335.51"/>
</g>
<!-- 22 -->
<g id="node23" class="node">
<title>22</title>
<ellipse fill="#136ed4" stroke="black" cx="415" cy="-306" rx="30.16" ry="18"/>
<text text-anchor="middle" x="415" y="-301.32" font-family="Times,serif" font-size="14.00">min</text>
</g>
<!-- 8&#45;&gt;22 -->
<g id="edge27" class="edge">
<title>8&#45;&gt;22</title>
<path fill="none" stroke="black" d="M326.81,-364.16C343.22,-353.52 366.8,-338.24 385.45,-326.16"/>
<polygon fill="black" stroke="black" points="387.19,-329.19 393.68,-320.82 383.39,-323.32 387.19,-329.19"/>
</g>
<!-- 10 -->
<g id="node11" class="node">
<title>10</title>
<ellipse fill="#136ed4" stroke="black" cx="177" cy="-234" rx="30.16" ry="18"/>
<text text-anchor="middle" x="177" y="-229.32" font-family="Times,serif" font-size="14.00">min</text>
</g>
<!-- 9&#45;&gt;10 -->
<g id="edge16" class="edge">
<title>9&#45;&gt;10</title>
<path fill="none" stroke="black" d="M283.29,-293.13C262.88,-281.96 232.08,-265.12 208.88,-252.43"/>
<polygon fill="black" stroke="black" points="210.6,-249.39 200.15,-247.66 207.24,-255.53 210.6,-249.39"/>
</g>
<!-- 19 -->
<g id="node20" class="node">
<title>19</title>
<ellipse fill="#136ed4" stroke="black" cx="305" cy="-234" rx="29.64" ry="18"/>
<text text-anchor="middle" x="305" y="-229.32" font-family="Times,serif" font-size="14.00">add</text>
</g>
<!-- 9&#45;&gt;19 -->
<g id="edge15" class="edge">
<title>9&#45;&gt;19</title>
<path fill="none" stroke="black" d="M305,-287.7C305,-280.41 305,-271.73 305,-263.54"/>
<polygon fill="black" stroke="black" points="308.5,-263.62 305,-253.62 301.5,-263.62 308.5,-263.62"/>
</g>
<!-- 11 -->
<g id="node12" class="node">
<title>11</title>
<ellipse fill="#136ed4" stroke="black" cx="97" cy="-162" rx="32.27" ry="18"/>
<text text-anchor="middle" x="97" y="-157.32" font-family="Times,serif" font-size="14.00">max</text>
</g>
<!-- 10&#45;&gt;11 -->
<g id="edge12" class="edge">
<title>10&#45;&gt;11</title>
<path fill="none" stroke="black" d="M160.42,-218.5C149.45,-208.89 134.84,-196.11 122.41,-185.24"/>
<polygon fill="black" stroke="black" points="124.8,-182.67 114.97,-178.72 120.19,-187.94 124.8,-182.67"/>
</g>
<!-- 14 -->
<g id="node15" class="node">
<title>14</title>
<ellipse fill="#136ed4" stroke="black" cx="177" cy="-162" rx="29.64" ry="18"/>
<text text-anchor="middle" x="177" y="-157.32" font-family="Times,serif" font-size="14.00">add</text>
</g>
<!-- 10&#45;&gt;14 -->
<g id="edge11" class="edge">
<title>10&#45;&gt;14</title>
<path fill="none" stroke="black" d="M177,-215.7C177,-208.41 177,-199.73 177,-191.54"/>
<polygon fill="black" stroke="black" points="180.5,-191.62 177,-181.62 173.5,-191.62 180.5,-191.62"/>
</g>
<!-- 12 -->
<g id="node13" class="node">
<title>12</title>
<ellipse fill="#60a6f6" stroke="black" cx="27" cy="-90" rx="27" ry="18"/>
<text text-anchor="middle" x="27" y="-85.33" font-family="Times,serif" font-size="14.00">X3</text>
</g>
<!-- 11&#45;&gt;12 -->
<g id="edge6" class="edge">
<title>11&#45;&gt;12</title>
<path fill="none" stroke="black" d="M81.81,-145.81C72.29,-136.29 59.86,-123.86 49.24,-113.24"/>
<polygon fill="black" stroke="black" points="51.82,-110.87 42.28,-106.28 46.87,-115.82 51.82,-110.87"/>
</g>
<!-- 13 -->
<g id="node14" class="node">
<title>13</title>
<ellipse fill="#60a6f6" stroke="black" cx="99" cy="-90" rx="27" ry="18"/>
<text text-anchor="middle" x="99" y="-85.33" font-family="Times,serif" font-size="14.00">X2</text>
</g>
<!-- 11&#45;&gt;13 -->
<g id="edge5" class="edge">
<title>11&#45;&gt;13</title>
<path fill="none" stroke="black" d="M97.49,-143.7C97.7,-136.41 97.95,-127.73 98.18,-119.54"/>
<polygon fill="black" stroke="black" points="101.68,-119.71 98.47,-109.62 94.68,-119.51 101.68,-119.71"/>
</g>
<!-- 15 -->
<g id="node16" class="node">
<title>15</title>
<ellipse fill="#136ed4" stroke="black" cx="176" cy="-90" rx="29.64" ry="18"/>
<text text-anchor="middle" x="176" y="-85.33" font-family="Times,serif" font-size="14.00">add</text>
</g>
<!-- 14&#45;&gt;15 -->
<g id="edge10" class="edge">
<title>14&#45;&gt;15</title>
<path fill="none" stroke="black" d="M176.75,-143.7C176.65,-136.41 176.52,-127.73 176.41,-119.54"/>
<polygon fill="black" stroke="black" points="179.91,-119.57 176.27,-109.62 172.91,-119.67 179.91,-119.57"/>
</g>
<!-- 18 -->
<g id="node19" class="node">
<title>18</title>
<ellipse fill="#60a6f6" stroke="black" cx="251" cy="-90" rx="27" ry="18"/>
<text text-anchor="middle" x="251" y="-85.33" font-family="Times,serif" font-size="14.00">X8</text>
</g>
<!-- 14&#45;&gt;18 -->
<g id="edge9" class="edge">
<title>14&#45;&gt;18</title>
<path fill="none" stroke="black" d="M192.33,-146.5C202.52,-136.86 216.09,-124.02 227.62,-113.12"/>
<polygon fill="black" stroke="black" points="229.98,-115.7 234.84,-106.29 225.17,-110.62 229.98,-115.7"/>
</g>
<!-- 16 -->
<g id="node17" class="node">
<title>16</title>
<ellipse fill="#60a6f6" stroke="black" cx="140" cy="-18" rx="27" ry="18"/>
<text text-anchor="middle" x="140" y="-13.32" font-family="Times,serif" font-size="14.00">X8</text>
</g>
<!-- 15&#45;&gt;16 -->
<g id="edge8" class="edge">
<title>15&#45;&gt;16</title>
<path fill="none" stroke="black" d="M167.47,-72.41C163.34,-64.39 158.29,-54.57 153.65,-45.54"/>
<polygon fill="black" stroke="black" points="156.85,-44.11 149.16,-36.82 150.62,-47.31 156.85,-44.11"/>
</g>
<!-- 17 -->
<g id="node18" class="node">
<title>17</title>
<ellipse fill="#60a6f6" stroke="black" cx="212" cy="-18" rx="27" ry="18"/>
<text text-anchor="middle" x="212" y="-13.32" font-family="Times,serif" font-size="14.00">X2</text>
</g>
<!-- 15&#45;&gt;17 -->
<g id="edge7" class="edge">
<title>15&#45;&gt;17</title>
<path fill="none" stroke="black" d="M184.53,-72.41C188.66,-64.39 193.71,-54.57 198.35,-45.54"/>
<polygon fill="black" stroke="black" points="201.38,-47.31 202.84,-36.82 195.15,-44.11 201.38,-47.31"/>
</g>
<!-- 20 -->
<g id="node21" class="node">
<title>20</title>
<ellipse fill="#60a6f6" stroke="black" cx="252" cy="-162" rx="27" ry="18"/>
<text text-anchor="middle" x="252" y="-157.32" font-family="Times,serif" font-size="14.00">X2</text>
</g>
<!-- 19&#45;&gt;20 -->
<g id="edge14" class="edge">
<title>19&#45;&gt;20</title>
<path fill="none" stroke="black" d="M292.97,-217.12C286.31,-208.31 277.88,-197.18 270.4,-187.31"/>
<polygon fill="black" stroke="black" points="273.36,-185.41 264.53,-179.55 267.77,-189.63 273.36,-185.41"/>
</g>
<!-- 21 -->
<g id="node22" class="node">
<title>21</title>
<ellipse fill="#60a6f6" stroke="black" cx="324" cy="-162" rx="27" ry="18"/>
<text text-anchor="middle" x="324" y="-157.32" font-family="Times,serif" font-size="14.00">X8</text>
</g>
<!-- 19&#45;&gt;21 -->
<g id="edge13" class="edge">
<title>19&#45;&gt;21</title>
<path fill="none" stroke="black" d="M309.6,-216.05C311.65,-208.49 314.13,-199.37 316.44,-190.85"/>
<polygon fill="black" stroke="black" points="319.8,-191.82 319.05,-181.25 313.05,-189.98 319.8,-191.82"/>
</g>
<!-- 23 -->
<g id="node24" class="node">
<title>23</title>
<ellipse fill="#136ed4" stroke="black" cx="415" cy="-234" rx="32.27" ry="18"/>
<text text-anchor="middle" x="415" y="-229.32" font-family="Times,serif" font-size="14.00">max</text>
</g>
<!-- 22&#45;&gt;23 -->
<g id="edge26" class="edge">
<title>22&#45;&gt;23</title>
<path fill="none" stroke="black" d="M415,-287.7C415,-280.41 415,-271.73 415,-263.54"/>
<polygon fill="black" stroke="black" points="418.5,-263.62 415,-253.62 411.5,-263.62 418.5,-263.62"/>
</g>
<!-- 26 -->
<g id="node27" class="node">
<title>26</title>
<ellipse fill="#136ed4" stroke="black" cx="543" cy="-234" rx="29.64" ry="18"/>
<text text-anchor="middle" x="543" y="-229.32" font-family="Times,serif" font-size="14.00">add</text>
</g>
<!-- 22&#45;&gt;26 -->
<g id="edge25" class="edge">
<title>22&#45;&gt;26</title>
<path fill="none" stroke="black" d="M436.71,-293.13C457.25,-281.9 488.3,-264.92 511.54,-252.2"/>
<polygon fill="black" stroke="black" points="513.18,-255.29 520.28,-247.43 509.83,-249.15 513.18,-255.29"/>
</g>
<!-- 24 -->
<g id="node25" class="node">
<title>24</title>
<ellipse fill="#60a6f6" stroke="black" cx="396" cy="-162" rx="27" ry="18"/>
<text text-anchor="middle" x="396" y="-157.32" font-family="Times,serif" font-size="14.00">X3</text>
</g>
<!-- 23&#45;&gt;24 -->
<g id="edge18" class="edge">
<title>23&#45;&gt;24</title>
<path fill="none" stroke="black" d="M410.3,-215.7C408.28,-208.24 405.86,-199.32 403.59,-190.97"/>
<polygon fill="black" stroke="black" points="407.04,-190.3 401.04,-181.57 400.28,-192.13 407.04,-190.3"/>
</g>
<!-- 25 -->
<g id="node26" class="node">
<title>25</title>
<ellipse fill="#60a6f6" stroke="black" cx="468" cy="-162" rx="27" ry="18"/>
<text text-anchor="middle" x="468" y="-157.32" font-family="Times,serif" font-size="14.00">X2</text>
</g>
<!-- 23&#45;&gt;25 -->
<g id="edge17" class="edge">
<title>23&#45;&gt;25</title>
<path fill="none" stroke="black" d="M427.03,-217.12C433.69,-208.31 442.12,-197.18 449.6,-187.31"/>
<polygon fill="black" stroke="black" points="452.23,-189.63 455.47,-179.55 446.64,-185.41 452.23,-189.63"/>
</g>
<!-- 27 -->
<g id="node28" class="node">
<title>27</title>
<ellipse fill="#136ed4" stroke="black" cx="543" cy="-162" rx="29.64" ry="18"/>
<text text-anchor="middle" x="543" y="-157.32" font-family="Times,serif" font-size="14.00">add</text>
</g>
<!-- 26&#45;&gt;27 -->
<g id="edge24" class="edge">
<title>26&#45;&gt;27</title>
<path fill="none" stroke="black" d="M543,-215.7C543,-208.41 543,-199.73 543,-191.54"/>
<polygon fill="black" stroke="black" points="546.5,-191.62 543,-181.62 539.5,-191.62 546.5,-191.62"/>
</g>
<!-- 32 -->
<g id="node33" class="node">
<title>32</title>
<ellipse fill="#60a6f6" stroke="black" cx="618" cy="-162" rx="27" ry="18"/>
<text text-anchor="middle" x="618" y="-157.32" font-family="Times,serif" font-size="14.00">X8</text>
</g>
<!-- 26&#45;&gt;32 -->
<g id="edge23" class="edge">
<title>26&#45;&gt;32</title>
<path fill="none" stroke="black" d="M558.54,-218.5C568.97,-208.76 582.89,-195.77 594.64,-184.8"/>
<polygon fill="black" stroke="black" points="596.71,-187.66 601.63,-178.28 591.93,-182.54 596.71,-187.66"/>
</g>
<!-- 28 -->
<g id="node29" class="node">
<title>28</title>
<ellipse fill="#136ed4" stroke="black" cx="505" cy="-90" rx="29.64" ry="18"/>
<text text-anchor="middle" x="505" y="-85.33" font-family="Times,serif" font-size="14.00">add</text>
</g>
<!-- 27&#45;&gt;28 -->
<g id="edge22" class="edge">
<title>27&#45;&gt;28</title>
<path fill="none" stroke="black" d="M533.99,-144.41C529.64,-136.39 524.31,-126.57 519.41,-117.54"/>
<polygon fill="black" stroke="black" points="522.51,-115.92 514.66,-108.8 516.36,-119.26 522.51,-115.92"/>
</g>
<!-- 31 -->
<g id="node32" class="node">
<title>31</title>
<ellipse fill="#60a6f6" stroke="black" cx="580" cy="-90" rx="27" ry="18"/>
<text text-anchor="middle" x="580" y="-85.33" font-family="Times,serif" font-size="14.00">X2</text>
</g>
<!-- 27&#45;&gt;31 -->
<g id="edge21" class="edge">
<title>27&#45;&gt;31</title>
<path fill="none" stroke="black" d="M551.77,-144.41C556.01,-136.39 561.2,-126.57 565.97,-117.54"/>
<polygon fill="black" stroke="black" points="569.01,-119.28 570.59,-108.81 562.82,-116.01 569.01,-119.28"/>
</g>
<!-- 29 -->
<g id="node30" class="node">
<title>29</title>
<ellipse fill="#60a6f6" stroke="black" cx="469" cy="-18" rx="27" ry="18"/>
<text text-anchor="middle" x="469" y="-13.32" font-family="Times,serif" font-size="14.00">X2</text>
</g>
<!-- 28&#45;&gt;29 -->
<g id="edge20" class="edge">
<title>28&#45;&gt;29</title>
<path fill="none" stroke="black" d="M496.47,-72.41C492.34,-64.39 487.29,-54.57 482.65,-45.54"/>
<polygon fill="black" stroke="black" points="485.85,-44.11 478.16,-36.82 479.62,-47.31 485.85,-44.11"/>
</g>
<!-- 30 -->
<g id="node31" class="node">
<title>30</title>
<ellipse fill="#60a6f6" stroke="black" cx="541" cy="-18" rx="27" ry="18"/>
<text text-anchor="middle" x="541" y="-13.32" font-family="Times,serif" font-size="14.00">X8</text>
</g>
<!-- 28&#45;&gt;30 -->
<g id="edge19" class="edge">
<title>28&#45;&gt;30</title>
<path fill="none" stroke="black" d="M513.53,-72.41C517.66,-64.39 522.71,-54.57 527.35,-45.54"/>
<polygon fill="black" stroke="black" points="530.38,-47.31 531.84,-36.82 524.15,-44.11 530.38,-47.31"/>
</g>
</g>
</svg>
